<svg version="1" xmlns="http://www.w3.org/2000/svg" width="682.667" height="682.667" viewBox="0 0 512.000000 512.000000"><path d="M120.5 115.7c-8.7 1.6-21.2 9.9-27.6 18.3-1.9 2.5-3.7 4.7-4 5-2.5 2-10.5 21.8-12.3 30.5-.4 1.6-.9 4.1-1.2 5.5-.3 1.4-.7 8.1-.8 15-.3 13.3 1 22.9 4.6 34 2.2 7.1 9.7 22 11 22 .4 0 .8.6.8 1.4 0 .7 3.1 4.3 6.8 7.8 10.5 9.9 20.2 13.9 32.2 13.3 11.1-.5 19-4.4 29-14.5 5-5 8.8-9.9 11.2-14.5 3.6-7 8.7-20.7 9.4-25.5.2-1.4.7-4.9 1.2-7.8.5-3 .8-10.8.6-17.5-1-44.8-29.3-78.6-60.9-73zM374 116.6c-8.2 2.5-13.4 5.8-21.1 13.4-6.2 6.1-8.5 9.3-12.3 17.1-2.6 5.3-4.9 10.5-5.1 11.5-.3 1-1.1 4.6-2 7.9-2.5 10.1-2.9 14.5-2.8 28 .1 10.4.6 15 2.7 23 4 15.6 12.7 31.5 20.9 38.4 1.6 1.4 3.4 3 4.1 3.6 7.1 6.9 22.9 10.8 33.9 8.3 12-2.7 26.9-15 33.2-27.4 1.7-3.2 3.3-6.1 3.6-6.4.7-.6 5.6-15.7 6.4-19.5 1.8-9.5 2.3-16.6 1.9-27.4-.2-6.7-.6-12.6-1-13.2-.3-.6-.8-2.5-1-4.2-1.2-8.2-7.3-23-12.8-31.2-6.3-9.3-15.9-17.3-24.9-20.7-6.4-2.5-17.6-3.1-23.7-1.2zM145.1 360c-10.5 3.5-17.1 12.6-17.2 23.8-.1 8.7 4.3 17 11.5 21.7 2.4 1.6 16.6 6.7 16.6 5.9 0-.2 1.5.2 3.4 1s3.7 1.2 3.9.9c.3-.2 1.4 0 2.4.5s3.4 1.2 5.3 1.5c1.9.3 4.4.8 5.5 1 4.3 1 11.8 2.1 23.5 3.4 12.4 1.5 45 .8 58-1.2 7.3-1.1 11.7-1.8 13.5-2.2 3-.6 5.7-1.2 8.3-1.8 1.2-.3 3.1-.7 4.2-.9 22.5-5 31.9-11.2 35.1-23 2.1-7.8-1.2-20.6-6.3-24.4-.9-.7-2.3-1.9-3.1-2.6-4.3-4.4-14.4-6.1-22.5-3.9-17.2 4.5-21.4 5.5-28.7 6.8-18.2 3.4-48.6 3.9-62 1.1-1.1-.2-4.3-.7-7.2-1.1-2.9-.4-8.5-1.6-12.5-2.6-4-1.1-8.6-2.2-10.3-2.5-1.6-.3-3.8-1-4.7-1.5-3.2-1.7-11.5-1.7-16.7.1z"/></svg>